<?xml version="1.0" encoding="UTF-8" standalone="no"?>
<svg
   width="22"
   height="22"
   version="1"
   id="svg8"
   sodipodi:docname="plugin.svg"
   inkscape:version="1.2.2 (b0a8486541, 2022-12-01)"
   xmlns:inkscape="http://www.inkscape.org/namespaces/inkscape"
   xmlns:sodipodi="http://sodipodi.sourceforge.net/DTD/sodipodi-0.dtd"
   xmlns="http://www.w3.org/2000/svg"
   xmlns:svg="http://www.w3.org/2000/svg">
  <defs
     id="defs12" />
  <sodipodi:namedview
     id="namedview10"
     pagecolor="#ffffff"
     bordercolor="#000000"
     borderopacity="0.25"
     inkscape:showpageshadow="2"
     inkscape:pageopacity="0.0"
     inkscape:pagecheckerboard="0"
     inkscape:deskcolor="#d1d1d1"
     showgrid="false"
     inkscape:zoom="46.681818"
     inkscape:cx="10.582279"
     inkscape:cy="11.107108"
     inkscape:window-width="2560"
     inkscape:window-height="1367"
     inkscape:window-x="0"
     inkscape:window-y="0"
     inkscape:window-maximized="1"
     inkscape:current-layer="svg8" />
  <path
     fill="#ffffff"
     opacity="0.1"
     d="m 8.8470424,-0.00681598 c -1.1928278,0 -2.1531188,0.960291 -2.1531188,2.15311888 v 0.5382797 c 0,-1.1928279 0.960291,-2.15311886 2.1531188,-2.15311886 1.1928276,0 2.1531186,0.96029096 2.1531186,2.15311886 V 2.1463029 c 0,-1.19282788 -0.960291,-2.15311888 -2.1531186,-2.15311888 z M 2.3876859,4.2994217 c -1.1928278,0 -2.15311883,0.960291 -2.15311883,2.1531189 v 0.5382797 c 0,-1.1928279 0.96029103,-2.1531189 2.15311883,-2.1531189 H 6.6939236 V 4.2994217 Z m 8.6124751,0 v 0.5382797 h 4.306238 c 1.192828,0 2.153119,0.960291 2.153119,2.1531189 V 6.4525406 c 0,-1.1928279 -0.960291,-2.1531189 -2.153119,-2.1531189 z m 6.459357,6.4593563 v 0.53828 h 2.153118 c 1.085495,0 1.969674,0.797752 2.121577,1.83984 0.0097,-0.07536 0.03122,-0.146413 0.03122,-0.225001 0,-1.192828 -0.960291,-2.153119 -2.153119,-2.153119 H 17.459195 Z M 4.4654456,13.450177 C 4.2264493,14.379248 3.3937307,15.065016 2.3880089,15.065016 H 0.23489004 v 0.538279 H 2.3880089 c 1.0056787,0 1.8384404,-0.685779 2.0774367,-1.614839 0.025879,0.100631 0.030791,0.208336 0.044157,0.313301 0.015072,-0.103345 0.031543,-0.205623 0.031543,-0.313279 0,-0.187321 -0.03122,-0.364954 -0.075682,-0.53828 z"
     id="path4"
     style="stroke-width:1.07655" />
  <path
     fill="#0780da"
     d="m 8.8468809,-0.00681598 c -1.1928278,0 -2.1531188,0.960291 -2.1531188,2.15311888 V 4.2994217 H 2.3875244 c -1.1928278,0 -2.15311883,0.960291 -2.15311883,2.1531189 V 10.758778 H 2.3875244 c 1.1928279,0 2.1531189,0.960291 2.1531189,2.153119 0,1.192828 -0.960291,2.153119 -2.1531189,2.153119 H 0.23440557 v 4.306237 c 0,1.192829 0.96029103,2.15312 2.15311883,2.15312 h 4.3062377 v -2.15312 c 0,-1.192827 0.960291,-2.153118 2.1531188,-2.153118 1.1928281,0 2.1531181,0.960291 2.1531181,2.153118 v 2.15312 h 4.306238 c 1.192828,0 2.153119,-0.960291 2.153119,-2.15312 v -4.306237 h 2.153118 c 1.192829,0 2.15312,-0.960291 2.15312,-2.153119 0,-1.192828 -0.960291,-2.153119 -2.15312,-2.153119 H 17.459356 V 6.4525406 c 0,-1.1928279 -0.960291,-2.1531189 -2.153119,-2.1531189 H 10.999999 V 2.1463029 c 0,-1.19282788 -0.96029,-2.15311888 -2.1531181,-2.15311888 z"
     id="path2"
     style="fill:#444444;stroke-width:1.07655;fill-opacity:1" />
  <path
     opacity="0.2"
     d="m 0.23440557,10.758778 v 0.53828 H 2.3875244 c 1.1006744,0 1.9928192,0.820532 2.1257742,1.883979 0.011196,-0.08935 0.027344,-0.176556 0.027344,-0.26914 0,-1.192828 -0.960291,-2.153119 -2.1531188,-2.153119 z M 21.73868,13.181037 c -0.133494,1.063641 -1.025962,1.883979 -2.126206,1.883979 h -2.153118 v 0.538279 h 2.153118 c 1.192829,0 2.15312,-0.960291 2.15312,-2.153118 0,-0.09219 -0.01619,-0.180055 -0.02733,-0.26914 z M 8.8468809,17.218135 c -1.1928278,0 -2.1531188,0.960291 -2.1531188,2.153118 v 0.53828 c 0,-1.192828 0.960291,-2.153119 2.1531188,-2.153119 1.1928281,0 2.1531181,0.960291 2.1531181,2.153119 v -0.53828 c 0,-1.192827 -0.96029,-2.153118 -2.1531181,-2.153118 z m -8.61247533,2.153118 v 0.53828 c 0,1.192828 0.96029103,2.153119 2.15311883,2.153119 H 6.6937621 V 21.524373 H 2.3875244 c -1.1928278,0 -2.15311883,-0.960291 -2.15311883,-2.15312 z m 17.22495043,0 c 0,1.192829 -0.960291,2.15312 -2.153119,2.15312 h -4.306238 v 0.538279 h 4.306238 c 1.192828,0 2.153119,-0.960291 2.153119,-2.153119 z"
     id="path6"
     style="stroke-width:1.07655" />
</svg>
