<?xml version="1.0" encoding="UTF-8" standalone="no"?>
<svg
   width="32"
   height="32"
   version="1.1"
   id="svg20"
   sodipodi:docname="voltage.svg"
   xml:space="preserve"
   inkscape:version="1.2.2 (b0a8486541, 2022-12-01)"
   xmlns:inkscape="http://www.inkscape.org/namespaces/inkscape"
   xmlns:sodipodi="http://sodipodi.sourceforge.net/DTD/sodipodi-0.dtd"
   xmlns="http://www.w3.org/2000/svg"
   xmlns:svg="http://www.w3.org/2000/svg"><defs
     id="defs24"><style
       id="current-color-scheme"
       type="text/css">
   .ColorScheme-Text { color:#444444; } .ColorScheme-Highlight { color:#4285f4; } .ColorScheme-NeutralText { color:#ff9800; } .ColorScheme-PositiveText { color:#4caf50; } .ColorScheme-NegativeText { color:#f44336; }
  </style></defs><sodipodi:namedview
     id="namedview22"
     pagecolor="#ffffff"
     bordercolor="#000000"
     borderopacity="0.25"
     inkscape:showpageshadow="2"
     inkscape:pageopacity="0.0"
     inkscape:pagecheckerboard="0"
     inkscape:deskcolor="#d1d1d1"
     showgrid="false"
     showguides="false"
     inkscape:zoom="32.09375"
     inkscape:cx="14.815969"
     inkscape:cy="16.124635"
     inkscape:window-width="2560"
     inkscape:window-height="1367"
     inkscape:window-x="0"
     inkscape:window-y="0"
     inkscape:window-maximized="1"
     inkscape:current-layer="svg20" /><circle
     style="opacity:0.2"
     cx="16"
     cy="17"
     r="14"
     id="circle2" /><circle
     style="fill:#005c94"
     cx="16"
     cy="16"
     r="14"
     id="circle4" /><path
     style="fill:#ffffff;opacity:0.2"
     d="M 16 2 A 14 14 0 0 0 2 16 A 14 14 0 0 0 2.0214844 16.585938 A 14 14 0 0 1 16 3 A 14 14 0 0 1 29.978516 16.414062 A 14 14 0 0 0 30 16 A 14 14 0 0 0 16 2 z"
     id="path18" /><g
     id="g874"
     transform="translate(-0.0105283,0.52373425)"><path
       style="fill:#404040;fill-opacity:0.524427;stroke-width:1.38214"
       class="ColorScheme-Text"
       d="m 16.691073,6.3249757 v 6.9107323 h 6.219658 L 15.308927,25.675024 V 18.764293 H 9.0892686 Z"
       id="path310" /><path
       style="color:#444444;fill:#ffcc00;fill-opacity:1;stroke-width:1.38214"
       class="ColorScheme-Text"
       d="M 16.71213,5.2775075 V 12.18824 h 6.219658 L 15.329984,24.627556 V 17.716825 H 9.1103253 Z"
       id="path310-3" /></g></svg>
